<svg width="22" height="22" viewBox="0 0 22 22" fill="none" xmlns="http://www.w3.org/2000/svg">
<path d="M13.3621 8.57188V11.9047C13.3621 11.9891 13.2933 12.0547 13.2049 12.0547H12.6451C12.5911 12.0547 12.542 12.0266 12.5174 11.9938L10.9165 9.93126V11.9094C10.9165 11.9938 10.8478 12.0594 10.7594 12.0594H10.1996C10.1112 12.0594 10.0424 11.9938 10.0424 11.9094V8.57657C10.0424 8.4922 10.1112 8.42657 10.1996 8.42657H10.7545C10.8036 8.42657 10.8576 8.45001 10.8822 8.4922L12.483 10.5547V8.57657C12.483 8.4922 12.5518 8.42657 12.6402 8.42657H13.2C13.2884 8.42188 13.3621 8.49219 13.3621 8.57188ZM9.33528 8.42188H8.77546C8.68706 8.42188 8.61831 8.48751 8.61831 8.57188V11.9047C8.61831 11.9891 8.68706 12.0547 8.77546 12.0547H9.33528C9.42367 12.0547 9.49242 11.9891 9.49242 11.9047V8.57188C9.49242 8.49219 9.42367 8.42188 9.33528 8.42188ZM7.98483 11.2156H6.4576V8.57188C6.4576 8.48751 6.38885 8.42188 6.30046 8.42188H5.74064C5.65224 8.42188 5.58349 8.48751 5.58349 8.57188V11.9047C5.58349 11.9469 5.59822 11.9797 5.62769 12.0078C5.65715 12.0313 5.69153 12.05 5.73572 12.05H7.97992C8.06831 12.05 8.13706 11.9844 8.13706 11.9V11.3656C8.13706 11.2859 8.06831 11.2156 7.98483 11.2156ZM16.3085 8.42188H14.0643C13.9808 8.42188 13.9072 8.48751 13.9072 8.57188V11.9047C13.9072 11.9844 13.9759 12.0547 14.0643 12.0547H16.3085C16.3969 12.0547 16.4656 11.9891 16.4656 11.9047V11.3703C16.4656 11.2859 16.3969 11.2203 16.3085 11.2203H14.7813V10.6578H16.3085C16.3969 10.6578 16.4656 10.5922 16.4656 10.5078V9.96876C16.4656 9.88438 16.3969 9.81876 16.3085 9.81876H14.7813V9.25626H16.3085C16.3969 9.25626 16.4656 9.19063 16.4656 9.10626V8.57188C16.4607 8.49219 16.392 8.42188 16.3085 8.42188ZM22 4.32969V17.7031C21.9951 19.8031 20.1929 21.5047 17.988 21.5H3.97769C1.77769 21.4953 -0.00490059 19.7703 1.01218e-05 17.6703V4.29688C0.00492084 2.19688 1.81206 0.49532 4.01206 0.500008H18.0223C20.2223 0.504695 22.0049 2.22501 22 4.32969ZM18.975 10.0766C18.975 6.6547 15.3804 3.87032 10.9656 3.87032C6.5509 3.87032 2.95626 6.6547 2.95626 10.0766C2.95626 13.1422 5.80448 15.7109 9.65448 16.1984C10.5924 16.3906 10.4844 16.7188 10.2732 17.9234C10.2389 18.1156 10.1112 18.6781 10.9656 18.3359C11.8201 17.9938 15.5768 15.7438 17.2612 13.8969C18.4201 12.6781 18.975 11.4453 18.975 10.0766Z" fill="white"/>
</svg>
