<svg width="22" height="22" viewBox="0 0 22 22" fill="none" xmlns="http://www.w3.org/2000/svg">
<path d="M11.0049 5.60937C7.88171 5.60937 5.36251 8.01406 5.36251 10.9953C5.36251 13.9766 7.88171 16.3812 11.0049 16.3812C14.1281 16.3812 16.6473 13.9766 16.6473 10.9953C16.6473 8.01406 14.1281 5.60937 11.0049 5.60937ZM11.0049 14.4969C8.98662 14.4969 7.33662 12.9266 7.33662 10.9953C7.33662 9.06406 8.9817 7.49374 11.0049 7.49374C13.0281 7.49374 14.6732 9.06406 14.6732 10.9953C14.6732 12.9266 13.0232 14.4969 11.0049 14.4969ZM18.1942 5.38906C18.1942 6.08749 17.6049 6.64531 16.8781 6.64531C16.1464 6.64531 15.5621 6.08281 15.5621 5.38906C15.5621 4.69531 16.1513 4.13281 16.8781 4.13281C17.6049 4.13281 18.1942 4.69531 18.1942 5.38906ZM21.9312 6.66406C21.8478 4.98124 21.4451 3.49062 20.1536 2.2625C18.867 1.03437 17.3054 0.649996 15.5424 0.565621C13.7254 0.467183 8.27947 0.467183 6.46251 0.565621C4.70448 0.645308 3.14287 1.02968 1.85136 2.25781C0.559842 3.48593 0.162074 4.97656 0.0736815 6.65937C-0.0294433 8.39374 -0.0294433 13.5922 0.0736815 15.3266C0.157164 17.0094 0.559842 18.5 1.85136 19.7281C3.14287 20.9562 4.69957 21.3406 6.46251 21.425C8.27947 21.5234 13.7254 21.5234 15.5424 21.425C17.3054 21.3453 18.867 20.9609 20.1536 19.7281C21.4402 18.5 21.8428 17.0094 21.9312 15.3266C22.0344 13.5922 22.0344 8.39843 21.9312 6.66406ZM19.5839 17.1875C19.2009 18.1062 18.4594 18.8141 17.492 19.1844C16.0433 19.7328 12.6058 19.6062 11.0049 19.6062C9.40403 19.6062 5.96162 19.7281 4.51787 19.1844C3.55537 18.8187 2.81386 18.1109 2.42591 17.1875C1.85136 15.8047 1.98395 12.5234 1.98395 10.9953C1.98395 9.46718 1.85627 6.18124 2.42591 4.80312C2.80895 3.88437 3.55046 3.17656 4.51787 2.80624C5.96653 2.25781 9.40403 2.38437 11.0049 2.38437C12.6058 2.38437 16.0482 2.2625 17.492 2.80624C18.4545 3.17187 19.196 3.87968 19.5839 4.80312C20.1585 6.18593 20.0259 9.46718 20.0259 10.9953C20.0259 12.5234 20.1585 15.8094 19.5839 17.1875Z" fill="white"/>
</svg>
