<svg width="22" height="21" viewBox="0 0 22 21" fill="none" xmlns="http://www.w3.org/2000/svg">
<path d="M4.92446 21H0.363393V6.97969H4.92446V21ZM2.64147 5.06719C1.18299 5.06719 0 3.91407 0 2.52188C1.04392e-08 1.85316 0.278297 1.21183 0.77367 0.738977C1.26904 0.266122 1.94091 0.00047493 2.64147 0.00047493C3.34204 0.00047493 4.0139 0.266122 4.50928 0.738977C5.00465 1.21183 5.28295 1.85316 5.28295 2.52188C5.28295 3.91407 4.09946 5.06719 2.64147 5.06719ZM21.9951 21H17.4438V14.175C17.4438 12.5484 17.4095 10.4625 15.0725 10.4625C12.7011 10.4625 12.3377 12.2297 12.3377 14.0578V21H7.78152V6.97969H12.156V8.89219H12.2198C12.8287 7.79063 14.3162 6.62813 16.5354 6.62813C21.1514 6.62813 22 9.52969 22 13.2984V21H21.9951Z" fill="white"/>
</svg>
